<svg xmlns="http://www.w3.org/2000/svg" width="431pt" height="188pt" viewBox="0 0 431 188">
    <g class="graph" transform="translate(4 184)">
        <title>G</title>
        <path fill="#fff" d="M-4 4v-188h431.18V4z"/>
        <g class="node">
            <title>:feature:detail</title>
            <ellipse cx="139.63" cy="-162" fill="none" stroke="#000" rx="62.1" ry="18"/>
            <text xml:space="preserve" x="139.63" y="-156.95" font-family="Times,serif" font-size="14" text-anchor="middle">:feature:detail</text>
        </g>
        <g class="node">
            <title>:domain</title>
            <ellipse cx="41.63" cy="-90" fill="none" stroke="#000" rx="41.63" ry="18"/>
            <text xml:space="preserve" x="41.63" y="-84.95" font-family="Times,serif" font-size="14" text-anchor="middle">:domain</text>
        </g>
        <g class="edge">
            <title>:feature:detail-&gt;:domain</title>
            <path fill="none" stroke="red" stroke-width="2" d="M116.9-144.76c-13.45 9.6-30.65 21.89-45.22 32.29"/>
            <path fill="red" stroke="red" stroke-width="2" d="m75.2-110.68-10.18 2.97 6.11-8.66z"/>
        </g>
        <g class="node">
            <title>:model</title>
            <ellipse cx="76.63" cy="-18" fill="none" stroke="#000" rx="37.02" ry="18"/>
            <text xml:space="preserve" x="76.63" y="-12.95" font-family="Times,serif" font-size="14" text-anchor="middle">:model</text>
        </g>
        <g class="edge">
            <title>:feature:detail-&gt;:model</title>
            <path fill="none" stroke="#000" d="M132.03-143.87c-10.8 24.33-30.68 69.14-43.46 97.94"/>
            <path stroke="#000" d="m91.93-44.85-7.26 7.72.86-10.56z"/>
        </g>
        <g class="node">
            <title>:core</title>
            <ellipse cx="168.63" cy="-90" fill="none" stroke="#000" rx="29.34" ry="18"/>
            <text xml:space="preserve" x="168.63" y="-84.95" font-family="Times,serif" font-size="14" text-anchor="middle">:core</text>
        </g>
        <g class="edge">
            <title>:feature:detail-&gt;:core</title>
            <path fill="none" stroke="#000" d="M146.8-143.7c3.2 7.75 7.06 17.06 10.64 25.68"/>
            <path stroke="#000" d="m160.57-119.6.59 10.58-7.06-7.9z"/>
        </g>
        <g class="node">
            <title>:feature:detail:navigation</title>
            <ellipse cx="319.63" cy="-90" fill="none" stroke="#000" rx="103.56" ry="18"/>
            <text xml:space="preserve" x="319.63" y="-84.95" font-family="Times,serif" font-size="14" text-anchor="middle">:feature:detail:navigation</text>
        </g>
        <g class="edge">
            <title>:feature:detail-&gt;:feature:detail:navigation</title>
            <path fill="none" stroke="#000" d="M175.62-147c26.5 10.3 62.91 24.46 92.49 35.96"/>
            <path stroke="#000" d="m269.2-114.37 8.05 6.89-10.58-.36z"/>
        </g>
        <g class="edge">
            <title>:domain-&gt;:model</title>
            <path fill="none" stroke="red" stroke-width="2" d="M50.1-72.05c3.91 7.82 8.65 17.3 13.04 26.07"/>
            <path fill="red" stroke="red" stroke-width="2" d="m65.54-49.01 1.34 10.51-7.6-7.38z"/>
        </g>
    </g>
</svg>
