<svg xmlns="http://www.w3.org/2000/svg" width="169pt" height="260pt" viewBox="0 0 169 260">
    <g class="graph" transform="translate(4 256)">
        <title>G</title>
        <path fill="#fff" d="M-4 4v-260h169.21V4z"/>
        <g class="node">
            <title>:remote</title>
            <ellipse cx="39.58" cy="-234" fill="none" stroke="#000" rx="39.58" ry="18"/>
            <text xml:space="preserve" x="39.58" y="-228.95" font-family="Times,serif" font-size="14" text-anchor="middle">:remote</text>
        </g>
        <g class="node">
            <title>:model</title>
            <ellipse cx="49.58" cy="-18" fill="none" stroke="#000" rx="37.02" ry="18"/>
            <text xml:space="preserve" x="49.58" y="-12.95" font-family="Times,serif" font-size="14" text-anchor="middle">:model</text>
        </g>
        <g class="edge">
            <title>:remote-&gt;:model</title>
            <path fill="none" stroke="#000" d="M35.93-215.91c-2.03 10.34-4.33 23.82-5.35 35.91-3.92 46.5 5.21 100.31 12.13 132.45"/>
            <path stroke="#000" d="m46.11-48.35-1.22 10.52-5.61-8.99z"/>
        </g>
        <g class="node">
            <title>:data</title>
            <ellipse cx="68.58" cy="-162" fill="none" stroke="#000" rx="28.83" ry="18"/>
            <text xml:space="preserve" x="68.58" y="-156.95" font-family="Times,serif" font-size="14" text-anchor="middle">:data</text>
        </g>
        <g class="edge">
            <title>:remote-&gt;:data</title>
            <path fill="none" stroke="red" stroke-width="2" d="M46.6-216.05c3.21 7.73 7.08 17.09 10.68 25.78"/>
            <path fill="red" stroke="red" stroke-width="2" d="m59.87-193.16.6 10.57-7.07-7.89z"/>
        </g>
        <g class="edge">
            <title>:data-&gt;:model</title>
            <path fill="none" stroke="#000" d="M66.25-143.59c-3.21 23.98-9.02 67.45-12.87 96.17"/>
            <path stroke="#000" d="m56.87-47.06-4.8 9.45-2.14-10.38z"/>
        </g>
        <g class="node">
            <title>:domain</title>
            <ellipse cx="119.58" cy="-90" fill="none" stroke="#000" rx="41.63" ry="18"/>
            <text xml:space="preserve" x="119.58" y="-84.95" font-family="Times,serif" font-size="14" text-anchor="middle">:domain</text>
        </g>
        <g class="edge">
            <title>:data-&gt;:domain</title>
            <path fill="none" stroke="red" stroke-width="2" d="M80.15-145.12c6.17 8.48 13.92 19.1 20.9 28.69"/>
            <path fill="red" stroke="red" stroke-width="2" d="m102.86-119.9 3.06 10.15-8.72-6.02z"/>
        </g>
        <g class="edge">
            <title>:domain-&gt;:model</title>
            <path fill="none" stroke="red" stroke-width="2" d="M103.7-73.12 72.97-42.39"/>
            <path fill="red" stroke="red" stroke-width="2" d="m76.61-41.08-9.55 4.6 4.6-9.55z"/>
        </g>
    </g>
</svg>
